<svg width="217" height="268" viewBox="0 0 217 268" fill="none" xmlns="http://www.w3.org/2000/svg">
<path d="M208 71.9375V196.312C208 246.062 195.562 258.5 145.812 258.5H71.1875C21.4375 258.5 9 246.062 9 196.312V71.9375C9 22.1875 21.4375 9.75 71.1875 9.75H145.812C195.562 9.75 208 22.1875 208 71.9375Z" stroke="#171717" stroke-width="18" stroke-linecap="round" stroke-linejoin="round"/>
<path d="M133.375 53.2812H83.625" stroke="#171717" stroke-width="18" stroke-linecap="round" stroke-linejoin="round"/>
<path d="M108.499 222.431C119.146 222.431 127.777 213.8 127.777 203.153C127.777 192.506 119.146 183.875 108.499 183.875C97.8523 183.875 89.2212 192.506 89.2212 203.153C89.2212 213.8 97.8523 222.431 108.499 222.431Z" stroke="#171717" stroke-width="18" stroke-linecap="round" stroke-linejoin="round"/>
</svg>
