<svg width="226" height="226" viewBox="0 0 226 226" fill="none" xmlns="http://www.w3.org/2000/svg">
<path d="M187.392 127.125H38.6082C24.4833 127.125 18.8333 133.152 18.8333 148.124V186.168C18.8333 201.14 24.4833 207.167 38.6082 207.167H187.392C201.517 207.167 207.167 201.14 207.167 186.168V148.124C207.167 133.152 201.517 127.125 187.392 127.125Z" stroke="#171717" stroke-width="18" stroke-linecap="round" stroke-linejoin="round"/>
<path d="M187.392 18.8333H38.6082C24.4833 18.8333 18.8333 24.8599 18.8333 39.8324V77.8758C18.8333 92.8483 24.4833 98.8749 38.6082 98.8749H187.392C201.517 98.8749 207.167 92.8483 207.167 77.8758V39.8324C207.167 24.8599 201.517 18.8333 187.392 18.8333Z" stroke="#171717" stroke-width="18" stroke-linecap="round" stroke-linejoin="round"/>
</svg>
